<svg width="512" height="512" viewBox="0 0 512 512" fill="none" xmlns="http://www.w3.org/2000/svg">
<path d="M256 0C205.368 -6.03781e-07 155.873 15.0141 113.774 43.1438C71.6751 71.2734 38.8629 111.255 19.4869 158.033C0.110814 204.811 -4.95885 256.284 4.91896 305.943C14.7968 355.602 39.1784 401.217 74.9806 437.019C110.783 472.822 156.398 497.203 206.057 507.081C255.716 516.959 307.189 511.889 353.967 492.513C400.745 473.137 440.727 440.325 468.856 398.226C496.986 356.127 512 306.632 512 256L384 256C384 281.316 376.493 306.064 362.428 327.113C348.363 348.163 328.372 364.569 304.983 374.257C281.594 383.945 255.858 386.479 231.028 381.541C206.199 376.602 183.391 364.411 165.49 346.51C147.589 328.609 135.398 305.801 130.459 280.972C125.521 256.142 128.055 230.405 137.743 207.017C147.431 183.628 163.838 163.637 184.887 149.572C205.937 135.507 230.684 128 256 128L256 0Z" fill="white"/>
<path d="M256 0C222.382 -4.00895e-07 189.092 6.62164 158.033 19.4868C126.974 32.352 98.7525 51.2089 74.9807 74.9807C51.2089 98.7525 32.352 126.974 19.4868 158.033C6.62163 189.092 -5.07623e-06 222.382 0 256L128 256C128 239.191 131.311 222.546 137.743 207.017C144.176 191.487 153.604 177.376 165.49 165.49C177.376 153.604 191.487 144.176 207.017 137.743C222.546 131.311 239.191 128 256 128L256 0Z" fill="#5CE1E6"/>
<circle cx="256" cy="256" r="80" fill="#5CE1E6"/>
<path d="M336 256C336 245.494 333.931 235.091 329.91 225.385C325.89 215.679 319.997 206.86 312.569 199.431C305.14 192.003 296.321 186.11 286.615 182.09C276.909 178.069 266.506 176 256 176C245.494 176 235.091 178.069 225.385 182.09C215.679 186.11 206.86 192.003 199.431 199.431C192.003 206.86 186.11 215.679 182.09 225.385C178.069 235.091 176 245.494 176 256L256 256H336Z" fill="white"/>
</svg>
