<svg width="174" height="195" viewBox="0 0 174 195" fill="none" xmlns="http://www.w3.org/2000/svg">
<mask id="mask0_36870_550" style="mask-type:alpha" maskUnits="userSpaceOnUse" x="0" y="0" width="174" height="195">
<rect width="174" height="195" fill="#D9D9D9"/>
</mask>
<g mask="url(#mask0_36870_550)">
<path d="M90.5085 183.478C86.5013 183.544 83.1401 180.621 82.5517 176.767L82.4616 175.694L79.8301 17.3879C79.7574 13.0164 83.2423 9.4137 87.6138 9.34103C91.621 9.27442 94.9822 12.1971 95.5706 16.0519L95.6607 17.1247L98.2922 175.431C98.3649 179.802 94.88 183.405 90.5085 183.478Z" fill="white"/>
<path d="M30.9287 87.6528C27.8957 90.8018 22.8842 90.8959 19.7352 87.863C16.8724 85.1058 16.5344 80.7134 18.7753 77.5716L19.525 76.6695L82.0393 11.7626C84.8047 8.89131 89.2131 8.56101 92.3551 10.8202L93.2568 11.5757L157.904 74.3687C161.041 77.415 161.113 82.4268 158.067 85.563C155.298 88.4141 150.904 88.7336 147.772 86.4794L146.873 85.7259L87.9244 28.4751L30.9287 87.6528Z" fill="white"/>
</g>
</svg>
